<svg id="visual" viewBox="0 0 960 540" width="960" height="540" xmlns="http://www.w3.org/2000/svg" xmlns:xlink="http://www.w3.org/1999/xlink" version="1.1"><path d="M0 85L22.8 94.8C45.7 104.7 91.3 124.3 137 141.7C182.7 159 228.3 174 274 174.7C319.7 175.3 365.3 161.7 411.2 148.8C457 136 503 124 548.8 116.8C594.7 109.7 640.3 107.3 686 115.2C731.7 123 777.3 141 823 142.7C868.7 144.3 914.3 129.7 937.2 122.3L960 115L960 0L937.2 0C914.3 0 868.7 0 823 0C777.3 0 731.7 0 686 0C640.3 0 594.7 0 548.8 0C503 0 457 0 411.2 0C365.3 0 319.7 0 274 0C228.3 0 182.7 0 137 0C91.3 0 45.7 0 22.8 0L0 0Z" fill="#CCCCCC" stroke-linecap="round" stroke-linejoin="miter"></path></svg>